<?xml version="1.0" encoding="utf-8"?>
<svg version="1.1" id="Camada_1" xmlns="http://www.w3.org/2000/svg" xmlns:xlink="http://www.w3.org/1999/xlink" x="0px" y="0px" preserveAspectRatio="xMinYMid" viewBox="0 0 70 70" enable-background="new 0 0 70 70" xml:space="preserve">
  <g>
    <g>
      <path fill="#007C60" d="M35,60.2c11.4,0,20.7-9.3,20.7-20.7c0-4.6-1.5-9.1-4.4-12.7l1.9-1.9c1.3-1.3,1.3-3.4,0-4.6 c-1.3-1.3-3.4-1.3-4.6,0l-2,2c-2.2-1.5-4.7-2.6-7.3-3.1V17h1.6c0.7,0,1.3-0.6,1.3-1.3v-2.5c0-1.8-1.5-3.3-3.3-3.3h-7.8 c-1.8,0-3.3,1.5-3.3,3.3v2.5c0,0.7,0.6,1.3,1.3,1.3h1.6v2.2c-2.6,0.5-5.1,1.6-7.3,3.1l-2-2c-1.2-1.2-3.4-1.2-4.6,0 c-1.3,1.3-1.3,3.4,0,4.6l1.9,1.9c-2.8,3.6-4.4,8.1-4.4,12.7C14.3,50.9,23.6,60.2,35,60.2z M18.5,22.6c0-0.2,0.1-0.3,0.2-0.4 c0.1-0.1,0.3-0.2,0.4-0.2s0.3,0.1,0.4,0.2l1.8,1.8c-0.3,0.3-0.6,0.5-0.9,0.8L18.7,23C18.6,22.9,18.5,22.7,18.5,22.6z M30.5,14.3 v-1.2c0-0.3,0.3-0.6,0.6-0.6h7.8c0.3,0,0.6,0.3,0.6,0.6v1.2H30.5z M51.3,23l-1.7,1.7c-0.3-0.3-0.6-0.5-0.9-0.8l1.8-1.8 c0.2-0.2,0.6-0.2,0.8,0C51.6,22.4,51.6,22.8,51.3,23z M33.4,18.8V17h3.1v1.8C35.5,18.7,34.5,18.7,33.4,18.8z M32.4,22 c1.7-0.3,3.6-0.3,5.3,0c2.9,0.4,5.7,1.6,8,3.4c0.9,0.7,1.8,1.5,2.6,2.4c2.8,3.2,4.4,7.3,4.4,11.6c0,9.7-7.9,17.6-17.6,17.6 c-9.7,0-17.6-7.9-17.6-17.6c0-4.3,1.6-8.4,4.4-11.6c0.8-0.9,1.6-1.7,2.6-2.4C26.7,23.6,29.4,22.5,32.4,22z" />
    </g>
    <g>
      <path fill="#007C60" d="M35,42.7c1.8,0,3.3-1.5,3.3-3.3c0-1.3-0.8-2.5-1.9-3v-6.7c0-0.7-0.6-1.3-1.3-1.3c-0.7,0-1.3,0.6-1.3,1.3 v6.7c-1.2,0.5-1.9,1.7-1.9,3C31.7,41.3,33.2,42.7,35,42.7z M34.4,39.5c0-0.3,0.3-0.6,0.6-0.6c0.3,0,0.6,0.3,0.6,0.6 s-0.3,0.6-0.6,0.6C34.7,40.1,34.4,39.8,34.4,39.5z" />
    </g>
  </g>
</svg>
