<?xml version="1.0" encoding="utf-8"?>
<svg version="1.1" id="Camada_1" xmlns="http://www.w3.org/2000/svg" xmlns:xlink="http://www.w3.org/1999/xlink" x="0px" y="0px" preserveAspectRatio="xMinYMid" viewBox="0 0 70 70" enable-background="new 0 0 70 70" xml:space="preserve">
  <g>
    <g>
      <path fill="#424f57" d="M60.4,28c-0.7,0-1.3,0.6-1.3,1.3v9.2c0,0.5-0.4,0.9-0.9,0.9H41.5c-0.5,0-0.9-0.4-0.9-0.9V21.7 c0-0.5,0.4-0.9,0.9-0.9H55c0.7,0,1.3-0.6,1.3-1.3s-0.6-1.3-1.3-1.3H41.5c-1.9,0-3.5,1.6-3.5,3.5v4.1c-1.4-0.5-2.9-0.8-4.3-0.9 v-0.1c1.1-0.8,1.7-2,1.7-3.3c0-2.2-1.8-4.1-4.1-4.1c-2.2,0-4.1,1.8-4.1,4.1c0,1.3,0.6,2.6,1.7,3.3v0.1C18.5,26,10.4,34.5,9.7,44.9 H8.4c-1.8,0-3.3,1.5-3.3,3.3v1.1c0,1.8,1.5,3.3,3.3,3.3h45.8c1.8,0,3.3-1.5,3.3-3.3v-1.1c0-1.8-1.5-3.3-3.3-3.3h-1.3 c-0.1-1-0.2-2-0.4-3h5.8c1.9,0,3.5-1.6,3.5-3.5v-9.2C61.7,28.6,61.1,28,60.4,28z M31.8,22.7c-0.2,0.1-0.4,0.2-0.5,0.4 c-0.1-0.2-0.3-0.3-0.5-0.4c-0.5-0.2-0.9-0.7-0.9-1.3c0-0.8,0.6-1.4,1.4-1.4c0.8,0,1.4,0.6,1.4,1.4C32.7,22,32.3,22.5,31.8,22.7z M7.8,48.3c0-0.3,0.3-0.6,0.6-0.6l32,0c0.7,0,1.4-0.6,1.4-1.4s-0.6-1.4-1.4-1.4H12.4c0.7-9.8,8.8-17.5,18.7-17.5h0.2 c2.3,0,4.5,0.4,6.6,1.2v9.8c0,1.9,1.6,3.5,3.5,3.5h8.2c0.2,1,0.4,2,0.5,3h-4.3c-0.7,0-1.4,0.6-1.4,1.4s0.6,1.4,1.4,1.4l8.3,0 c0.3,0,0.6,0.3,0.6,0.6l0,1.1c0,0.3-0.3,0.6-0.6,0.6H8.4c-0.3,0-0.6-0.3-0.6-0.6V48.3z" />
    </g>
    <g>
      <path fill="#424f57" d="M63.6,18.3L63.6,18.3c-0.4,0-0.7,0.1-0.9,0.4l-11,11l-3.9-3.9c-0.5-0.5-1.3-0.5-1.9,0 c-0.2,0.2-0.4,0.6-0.4,0.9c0,0.4,0.1,0.7,0.4,0.9l4.9,4.9c0.2,0.2,0.6,0.4,0.9,0.4c0.4,0,0.7-0.1,0.9-0.4l11.9-11.9 c0.2-0.2,0.4-0.6,0.4-0.9c0-0.3-0.1-0.7-0.4-0.9C64.3,18.4,64,18.3,63.6,18.3z" />
    </g>
  </g>
</svg>
