<?xml version="1.0" encoding="utf-8"?>
<svg version="1.1" id="Camada_1" xmlns="http://www.w3.org/2000/svg" xmlns:xlink="http://www.w3.org/1999/xlink" x="0px" y="0px" preserveAspectRatio="xMinYMid" viewBox="0 0 70 70" enable-background="new 0 0 70 70" xml:space="preserve">
  <g>
    <path fill="#007C60" d="M20.5,36.8h-7.4c-2.2,0-4,1.8-4,4V49c0,2.2,1.8,3.9,4,3.9h7.4c2.2,0,3.9-1.8,3.9-3.9v-8.3 C24.5,38.5,22.7,36.8,20.5,36.8z M21.5,49c0,0.6-0.5,1-1,1h-7.4c-0.6,0-1-0.5-1-1v-8.3c0-0.6,0.5-1,1-1h7.4c0.6,0,1,0.5,1,1V49z" />
    <path fill="#007C60" d="M38.7,26.8h-7.4c-2.2,0-3.9,1.8-3.9,4V49c0,2.2,1.8,3.9,3.9,3.9h7.4c2.2,0,3.9-1.8,3.9-3.9V30.7 C42.7,28.5,40.9,26.8,38.7,26.8z M39.7,49c0,0.6-0.5,1-1,1h-7.4c-0.6,0-1-0.5-1-1V30.7c0-0.6,0.5-1,1-1h7.4c0.6,0,1,0.5,1,1V49z" />
    <path fill="#007C60" d="M56.9,17h-7.4c-2.2,0-4,1.8-4,4v28c0,2.2,1.8,3.9,4,3.9h7.4c2.2,0,4-1.8,4-3.9V21 C60.8,18.8,59.1,17,56.9,17z M57.9,49c0,0.6-0.5,1-1,1h-7.4c-0.6,0-1-0.5-1-1V21c0-0.6,0.5-1,1-1h7.4c0.6,0,1,0.5,1,1V49z" />
  </g>
</svg>
