<?xml version="1.0" encoding="utf-8"?>
<svg version="1.1" id="Camada_1" xmlns="http://www.w3.org/2000/svg" xmlns:xlink="http://www.w3.org/1999/xlink" x="0px" y="0px" preserveAspectRatio="xMinYMid" viewBox="0 0 70 70" enable-background="new 0 0 70 70" xml:space="preserve">
  <g>
    <path fill="#007C60" d="M50.3,20.8l-0.8-2.5c-0.5-1.5-1.6-2.7-3-3.4c-1.4-0.7-3-0.8-4.5-0.3c-1.7,0.6-3.1,2-3.7,3.7l-0.8,2.5 c-0.7,2.2-0.8,4.5-0.4,6.8c0.4,1.9,1.5,3.5,3.2,4.5l-0.8,19c-0.1,1.2,0.3,2.4,1.1,3.2c0.8,0.9,1.9,1.4,3.2,1.5c0.1,0,0.1,0,0.2,0 c1.1,0,2.2-0.4,3.1-1.2c0.1-0.1,0.2-0.2,0.3-0.3c0.8-0.9,1.2-2,1.1-3.1L47.5,32c1.7-1,2.8-2.6,3.2-4.5C51.1,25.3,51,23,50.3,20.8z M47.6,27c-0.2,1.2-1.1,2.2-2.2,2.6c-0.6,0.2-1,0.9-1,1.5l0.9,20.2c0,0.3-0.1,0.6-0.2,0.8c-0.6,0.6-1.5,0.6-2.1,0 c-0.2-0.2-0.3-0.5-0.3-0.9l0.9-20.1c0-0.7-0.4-1.3-1-1.5c-1.1-0.4-2-1.4-2.2-2.6c-0.3-1.8-0.2-3.6,0.3-5.3l0.8-2.5 c0.4-1.1,1.5-1.8,2.6-1.8c0.3,0,0.6,0.1,0.9,0.2c0.7,0.3,1.3,0.9,1.6,1.6l0.8,2.5C47.8,23.4,47.9,25.2,47.6,27z" />
    <path fill="#007C60" d="M31.4,14.3c-0.9,0-1.6,0.7-1.6,1.6V26l-3.1,3.1c-0.3,0.3-0.5,0.7-0.5,1.2l1,21c0,0.3-0.1,0.7-0.3,0.9 c-0.2,0.2-0.6,0.4-0.9,0.4c0,0,0,0,0,0c-0.3,0-0.7-0.1-0.9-0.4c-0.2-0.3-0.4-0.6-0.3-0.9l1.1-20.9c0-0.4-0.1-0.9-0.5-1.2L22.2,26 V15.9c0-0.9-0.7-1.6-1.6-1.6c-0.9,0-1.6,0.7-1.6,1.6v10.8c0,0.4,0.2,0.8,0.5,1.1l3.1,3.1l-1,20.3c-0.1,1.2,0.3,2.3,1.1,3.2 c0.8,0.9,1.9,1.4,3.1,1.4c0.1,0,0.1,0,0.2,0c1.1,0,2.1-0.4,3-1.1c0.9-0.8,1.4-1.9,1.4-3.1c0-0.1,0-0.3,0-0.4l-1-20.3l3.1-3.1 c0.3-0.3,0.5-0.7,0.5-1.1V15.9C33,15,32.3,14.3,31.4,14.3z" />
    <path fill="#007C60" d="M24.2,27c0.9,0,1.6-0.7,1.6-1.6v-9.6c0-0.9-0.7-1.6-1.6-1.6c-0.9,0-1.6,0.7-1.6,1.6v9.6 C22.7,26.3,23.4,27,24.2,27z" />
    <path fill="#007C60" d="M27.8,27c0.9,0,1.6-0.7,1.6-1.6v-9.6c0-0.9-0.7-1.6-1.6-1.6c-0.9,0-1.6,0.7-1.6,1.6v9.6 C26.2,26.3,27,27,27.8,27z" />
  </g>
</svg>
